<svg width="32" height="32" viewBox="0 0 32 32" fill="none" xmlns="http://www.w3.org/2000/svg">
<path fill-rule="evenodd" clip-rule="evenodd" d="M12.0001 3.99996H10.6667V11.4766C10.6669 11.9256 10.5022 12.359 10.2041 12.6946C8.78447 14.2916 8.00023 16.3539 8.00008 18.4906V27.638C8.00008 27.838 8.16208 28 8.36208 28H14.3047C14.5047 28 14.6667 27.838 14.6667 27.638V18.4906C14.6667 16.354 13.8827 14.2913 12.4634 12.6946C12.165 12.3591 12.0002 11.9257 12.0001 11.4766V3.99996ZM12.0001 2.66663C12.3537 2.66663 12.6928 2.8071 12.9429 3.05715C13.1929 3.3072 13.3334 3.64634 13.3334 3.99996V11.4766C13.3334 11.5993 13.3781 11.7166 13.4601 11.8086C15.0965 13.6498 16.0003 16.0274 16.0001 18.4906V27.638C16.0001 28.0876 15.8215 28.5188 15.5035 28.8367C15.1856 29.1547 14.7544 29.3333 14.3047 29.3333H8.36208C8.13945 29.3333 7.91899 29.2894 7.71331 29.2042C7.50762 29.119 7.32073 28.9942 7.1633 28.8367C7.00587 28.6793 6.881 28.4924 6.7958 28.2867C6.7106 28.081 6.66675 27.8606 6.66675 27.638V18.4906C6.66682 16.0274 7.57059 13.6499 9.20675 11.8086C9.2882 11.7172 9.33327 11.5991 9.33341 11.4766V3.99996C9.33341 3.64634 9.47389 3.3072 9.72394 3.05715C9.97399 2.8071 10.3131 2.66663 10.6667 2.66663H12.0001Z" fill="#545454"/>
</svg>
