<svg width="32" height="32" viewBox="0 0 32 32" fill="none" xmlns="http://www.w3.org/2000/svg">
<path d="M22.2599 4.26497H17.8112C17.0074 4.26753 17.0375 5.46561 17.8112 5.45857H22.2599V6.07105H17.8112C17.0119 6.06401 17.0413 7.26145 17.8112 7.26465H22.2599V7.89057H17.8112C17.0119 7.89057 17.0413 9.08737 17.8112 9.08417H22.2599V9.68065H17.8112C17.0285 9.68641 17.0413 10.8845 17.8112 10.8883H22.2599V11.4861H17.8112C17.0285 11.4835 17.0253 12.6797 17.8112 12.6797H22.2599V13.2762H17.8112C17.0285 13.2787 17.0253 14.4762 17.8112 14.4704H22.2599V15.0816H17.8112C17.0285 15.0746 17.0253 16.2707 17.8112 16.2752H22.2599V16.8704H17.8112C17.0285 16.8698 17.0413 18.0685 17.8112 18.0647H22.2599V29.6864C22.2624 31.4573 24.9524 31.4253 24.96 29.6864V2.48961C24.9524 1.68065 24.288 0.657935 23.1949 0.654735H17.8112C17.0074 0.655375 17.0375 1.85345 17.8112 1.84833L22.2599 1.86305V2.45825H17.8112C17.0087 2.45441 17.0388 3.65185 17.8112 3.65249H22.2599V4.26497ZM17.5053 24.8691C17.5027 22.8019 15.36 20.5786 12.8 22.0186V14.112L11.1444 1.07201C11.1098 0.727055 10.8173 0.645775 10.6208 0.640015C10.418 0.645775 10.0116 0.727055 9.96739 1.07201L8.32003 14.112V22.0186C5.76003 20.5786 3.68643 22.816 3.68579 24.8531C3.68643 26.6656 5.08163 28.1543 6.96963 28.1498C8.87171 28.1543 10.24 26.4858 10.24 24.8531V16.64H10.88V24.8531C10.88 26.681 12.2957 28.0339 13.8688 28.1197C13.8426 29.1219 14.1696 30.5517 14.7853 31.1187C15.5072 31.7843 16.3668 30.9331 16.0141 30.24C15.6736 29.5949 15.3396 29.2128 15.6109 27.8042C16.745 27.2794 17.5027 26.1747 17.5053 24.8691ZM7.04259 26.4954C6.61103 26.4954 6.19715 26.3239 5.89199 26.0188C5.58683 25.7136 5.41539 25.2997 5.41539 24.8682C5.41539 24.4366 5.58683 24.0227 5.89199 23.7176C6.19715 23.4124 6.61103 23.241 7.04259 23.241C7.92963 23.2461 8.65219 23.9738 8.65859 24.8691C8.65677 25.2981 8.48625 25.7091 8.18387 26.0134C7.8815 26.3177 7.47155 26.4908 7.04259 26.4954ZM12.528 24.8691C12.5295 24.4398 12.7 24.0282 13.0025 23.7236C13.305 23.4189 13.7153 23.2455 14.1447 23.241C14.5742 23.2449 14.9848 23.418 15.2874 23.7229C15.5899 24.0277 15.76 24.4396 15.7607 24.8691C15.76 25.2985 15.5899 25.7102 15.2872 26.0147C14.9846 26.3193 14.574 26.492 14.1447 26.4954C13.7154 26.4915 13.305 26.3186 13.0024 26.0142C12.6998 25.7098 12.5294 25.2984 12.528 24.8691Z" fill="#545454"/>
</svg>
