<svg width="32" height="32" viewBox="0 0 32 32" fill="none" xmlns="http://www.w3.org/2000/svg">
<path d="M11 21H17V23H11V21Z" fill="#545454"/>
<path d="M24.246 8L25.96 14H30V12H27.469L26.169 7.451C26.0485 7.0337 25.796 6.66671 25.4493 6.4051C25.1025 6.14348 24.6803 6.00134 24.246 6H22.897L22.169 3.451C22.0485 3.03354 21.7958 2.66643 21.4489 2.4048C21.1019 2.14317 20.6795 2.00113 20.245 2H7.754C7.31996 2.00149 6.89808 2.14359 6.55158 2.405C6.20508 2.6664 5.95261 3.03305 5.832 3.45L4.532 8H2V10H6.04L7.754 4H20.246L20.817 6H11.754C11.32 6.00149 10.8981 6.14359 10.5516 6.405C10.2051 6.6664 9.95261 7.03305 9.832 7.45L8.816 11H7.714C7.29716 10.9999 6.89073 11.1302 6.55164 11.3727C6.21255 11.6151 5.95778 11.9575 5.823 12.352L4.57 16H2V18H4V25C4.00053 25.5303 4.21141 26.0387 4.58637 26.4136C4.96133 26.7886 5.46973 26.9995 6 27V30H8V27H20V30H22V27C22.5303 26.9995 23.0387 26.7886 23.4136 26.4136C23.7886 26.0387 23.9995 25.5303 24 25V18H26V16H23.429L22.178 12.353C22.0432 11.9583 21.7883 11.6156 21.449 11.373C21.1098 11.1304 20.7031 10.9999 20.286 11H10.897L11.754 8H24.246ZM22 19V21H20V23H22V25H6V23H8V21H6V19H22ZM21.657 17H6.343L7.714 13H20.286L21.657 17Z" fill="#545454"/>
</svg>
