<svg width="32" height="32" viewBox="0 0 32 32" fill="none" xmlns="http://www.w3.org/2000/svg">
<path fill-rule="evenodd" clip-rule="evenodd" d="M10.543 11.2929C10.1524 11.6834 10.1524 12.3166 10.543 12.7071L14.0785 16.2427L10.5429 19.7783C10.1524 20.1688 10.1524 20.802 10.5429 21.1925C10.9334 21.5831 11.5666 21.5831 11.9571 21.1925L15.4928 17.6569L19.0283 21.1924C19.4188 21.5829 20.0519 21.5829 20.4425 21.1924C20.833 20.8019 20.833 20.1687 20.4425 19.7782L16.907 16.2427L20.4424 12.7073C20.8329 12.3167 20.8329 11.6836 20.4424 11.293C20.0519 10.9025 19.4187 10.9025 19.0282 11.293L15.4928 14.8285L11.9572 11.2929C11.5667 10.9024 10.9335 10.9024 10.543 11.2929Z" />
</svg>
