<svg width="32" height="32" viewBox="0 0 32 32" fill="none" xmlns="http://www.w3.org/2000/svg">
<path d="M15.9897 1.25439C15.5983 1.25463 15.2213 1.40158 14.933 1.66623L0.472242 14.416C0.467714 14.42 0.463234 14.424 0.458802 14.4282C-0.00647789 14.8586 -0.114638 15.561 0.119602 16.0736C0.353842 16.5866 0.902962 16.9533 1.52568 16.9536H5.25432V29.2762C5.25432 30.1174 5.98648 30.745 6.78936 30.7453H25.2098C26.0127 30.7453 26.7449 30.1174 26.7449 29.2765V16.9536H30.4738C31.0966 16.9536 31.6457 16.5869 31.8799 16.0739C32.1142 15.5613 32.006 14.8586 31.5407 14.4282C31.5363 14.424 31.5318 14.42 31.5273 14.416L17.0668 1.66623C16.7734 1.39673 16.3881 1.24942 15.9897 1.25439ZM15.9999 9.02623C19.3919 9.02623 22.1705 11.7974 22.1705 15.1795C22.1705 15.9939 22.0082 16.7728 21.7161 17.4861C21.6532 17.6742 21.5744 17.8566 21.4806 18.0314L16.7478 26.0858C16.2479 26.7632 15.8486 26.9123 15.2473 26.1274L10.9561 18.7094C10.2233 17.6782 9.82949 16.4446 9.82936 15.1795C9.82936 11.7971 12.6079 9.02591 15.9999 9.02591V9.02623ZM15.9999 11.9094C14.1734 11.9094 12.7206 13.3581 12.7206 15.1795C12.7206 17.0006 14.1734 18.4493 15.9999 18.4493C17.8265 18.4493 19.2793 17.0006 19.2793 15.1795C19.2793 13.3581 17.8265 11.9094 15.9999 11.9094Z" fill="#545454"/>
</svg>
