<svg width="32" height="32" viewBox="0 0 32 32" fill="none" xmlns="http://www.w3.org/2000/svg">
<path d="M9.4055 3.8925L9.4675 3.9895C8.57071 4.10835 7.67592 4.24186 6.7835 4.39C5.863 4.545 3.8855 5.278 2.5695 5.791L2.5615 5.6965L1 6.204L1.449 12.371L3.1165 12.513L3.1065 12.395L7.4505 12.731C7.5275 17.8615 6.917 23.9575 6.502 27.5215L6.3565 27.488L6.2425 29.7305C6.2425 29.7305 10.421 30.915 15.996 31V28.68L15.999 6.8975L11.219 1L9.4055 3.8925ZM1.917 11.909L1.5275 6.5585L2.115 6.367L2.5705 11.965L1.917 11.909ZM15.496 30.4895C11.247 30.372 7.867 29.6225 6.7625 29.349L6.8255 28.1045C8.1795 28.392 11.6955 29.0615 15.496 29.17V30.4895ZM14.563 27.4555C13.916 27.4555 13.39 26.966 13.39 26.3625C13.39 25.759 13.916 25.2695 14.563 25.2695C15.2105 25.2695 15.736 25.759 15.736 26.3625C15.736 26.966 15.2105 27.4555 14.563 27.4555ZM14.563 23.469C13.916 23.469 13.39 22.9795 13.39 22.3755C13.39 21.7725 13.916 21.283 14.563 21.283C15.2105 21.283 15.736 21.7725 15.736 22.3755C15.736 22.9795 15.2105 23.469 14.563 23.469ZM14.563 19.483C13.916 19.483 13.39 18.9935 13.39 18.39C13.39 17.7865 13.916 17.2965 14.563 17.2965C15.2105 17.2965 15.736 17.786 15.736 18.39C15.736 18.993 15.2105 19.483 14.563 19.483ZM14.563 15.496C13.916 15.496 13.39 15.007 13.39 14.4035C13.39 13.7995 13.916 13.31 14.563 13.31C15.2105 13.31 15.736 13.7995 15.736 14.4035C15.736 15.0075 15.2105 15.496 14.563 15.496ZM15.736 10.417C15.736 11.0205 15.2105 11.51 14.563 11.51C13.916 11.51 13.39 11.0205 13.39 10.417C13.39 9.8135 13.916 9.324 14.563 9.324C15.2105 9.324 15.736 9.8135 15.736 10.417ZM15.287 6.8135L12.9845 8.5795L9.9965 3.8905L11.271 1.8585L15.287 6.8135Z" fill="#545454"/>
<path d="M29.4395 5.6965L29.4315 5.791C28.1155 5.279 26.1375 4.545 25.2175 4.39C24.325 4.24211 23.4303 4.10859 22.5335 3.9895L22.5955 3.8925L20.782 1H11.219L13.7095 4.0715H18.2915L15.999 6.8975L16.5445 7.3155V30.9855C21.846 30.835 25.7585 29.7305 25.7585 29.7305L25.6445 27.488L25.4995 27.522C25.0845 23.9575 24.473 17.8615 24.5505 12.731L28.893 12.395L28.883 12.513L30.551 12.371L31 6.204L29.4395 5.6965ZM20.73 1.858L22.0045 3.8905L19.016 8.5795L16.711 6.813L20.73 1.858ZM25.1755 28.106L25.2385 29.3485C24.1815 29.609 21.041 30.305 17.0445 30.4675V29.152C20.606 29.018 23.8785 28.3855 25.1755 28.106ZM30.083 11.909L29.429 11.9645L29.886 6.3675L30.4725 6.5585L30.083 11.909Z" fill="#545454"/>
</svg>
