<svg width="32" height="32" viewBox="0 0 32 32" fill="none" xmlns="http://www.w3.org/2000/svg">
<g clip-path="url(#clip0_161_134)">
<path d="M27.52 7.68005H0V24.3201H32V7.68005H27.52ZM30.72 20.0135C29.9946 20.2087 29.3333 20.591 28.8021 21.1221C28.2709 21.6533 27.8886 22.3147 27.6934 23.0401H4.30656C4.1112 22.3148 3.72884 21.6535 3.1977 21.1224C2.66657 20.5912 2.00529 20.2089 1.28 20.0135V11.9866C2.00529 11.7913 2.66657 11.4089 3.1977 10.8778C3.72884 10.3466 4.1112 9.68534 4.30656 8.96005H27.7082C27.9212 9.67241 28.3079 10.3206 28.8337 10.8464C29.3594 11.3721 30.0076 11.7589 30.72 11.9719V20.0135ZM17.3542 17.3153C17.207 17.2257 17.28 17.1431 16.64 17.0669V18.921L16.9907 18.8557C17.4656 18.6893 17.7037 18.3789 17.7037 17.9271C17.7037 17.6653 17.5866 17.4593 17.3542 17.3153ZM14.4736 14.29C14.4736 14.5748 14.6035 14.7892 14.8621 14.93C14.9613 14.9857 15.1283 15.0477 15.3594 15.1149V13.3607C15.1848 13.3987 15.0182 13.4669 14.8672 13.5623C14.6048 13.7364 14.4736 13.9796 14.4736 14.29ZM16 9.60005C12.8186 9.60005 10.24 12.466 10.24 16.0001C10.24 19.5335 12.8186 22.4001 16 22.4001C19.1814 22.4001 21.76 19.5335 21.76 16.0001C21.76 12.466 19.1814 9.60005 16 9.60005ZM18.4666 19.6186C18.032 19.9898 17.28 20.217 16.64 20.3028V21.1201H15.36V20.2881C14.6918 20.1972 14.1382 20.0961 13.7037 19.7537C13.4263 19.5343 13.2013 19.2559 13.045 18.9388C12.8887 18.6216 12.805 18.2736 12.8 17.9201H14.3923C14.4442 17.9201 14.5453 18.4327 14.6963 18.6138C14.8531 18.8001 15.0758 18.8218 15.36 18.9005V16.7213C14.5811 16.5415 14.0384 16.3476 13.737 16.1389C13.1987 15.7709 12.9299 15.1943 12.9299 14.4109C12.9299 13.6961 13.193 13.1021 13.7197 12.6292C14.1216 12.2676 14.6694 12.0455 15.36 11.9597V10.8801H16.64V11.9937C17.28 12.089 17.7126 12.386 18.112 12.6823C18.713 13.1284 19.136 13.4401 19.1648 14.7201H17.561C17.5309 14.0801 17.2096 13.8036 16.8109 13.6013C16.7503 13.562 16.6932 13.5177 16.64 13.4689V15.4804L17.2173 15.5917C17.831 15.7364 18.3987 15.9297 18.7046 16.1709C19.1808 16.5473 19.3651 17.0906 19.3651 17.801C19.3664 18.5306 19.0298 19.1361 18.4666 19.6186Z" fill="#545454"/>
</g>
</svg>
