<svg width="20" height="32" viewBox="0 0 20 32" fill="none" xmlns="http://www.w3.org/2000/svg">
<path d="M9 0C9.27083 0 9.50521 0.0989583 9.70312 0.296875C9.90104 0.494792 10 0.729167 10 1V12C10 12.5521 9.89583 13.0677 9.6875 13.5469C9.47917 14.026 9.19271 14.4479 8.82812 14.8125C8.46354 15.1771 8.03646 15.4635 7.54688 15.6719C7.05729 15.8802 6.54167 15.9896 6 16V31C6 31.2708 5.90104 31.5052 5.70312 31.7031C5.50521 31.901 5.27083 32 5 32C4.72917 32 4.49479 31.901 4.29688 31.7031C4.09896 31.5052 4 31.2708 4 31V16C3.44792 16 2.93229 15.8958 2.45312 15.6875C1.97396 15.4792 1.55208 15.1927 1.1875 14.8281C0.822917 14.4635 0.536458 14.0417 0.328125 13.5625C0.119792 13.0833 0.0104167 12.5625 0 12V1C0 0.729167 0.0989583 0.494792 0.296875 0.296875C0.494792 0.0989583 0.729167 0 1 0C1.27083 0 1.50521 0.0989583 1.70312 0.296875C1.90104 0.494792 2 0.729167 2 1V12C2 12.2812 2.05208 12.5417 2.15625 12.7812C2.26042 13.0208 2.40104 13.2292 2.57812 13.4062C2.75521 13.5833 2.96875 13.7292 3.21875 13.8438C3.46875 13.9583 3.72917 14.0104 4 14V1C4 0.729167 4.09896 0.494792 4.29688 0.296875C4.49479 0.0989583 4.72917 0 5 0C5.27083 0 5.50521 0.0989583 5.70312 0.296875C5.90104 0.494792 6 0.729167 6 1V14C6.28125 14 6.54167 13.9479 6.78125 13.8438C7.02083 13.7396 7.22917 13.599 7.40625 13.4219C7.58333 13.2448 7.72917 13.0312 7.84375 12.7812C7.95833 12.5312 8.01042 12.2708 8 12V1C8 0.729167 8.09896 0.494792 8.29688 0.296875C8.49479 0.0989583 8.72917 0 9 0ZM20 0V31C20 31.2708 19.901 31.5052 19.7031 31.7031C19.5052 31.901 19.2708 32 19 32C18.7292 32 18.4948 31.901 18.2969 31.7031C18.099 31.5052 18 31.2708 18 31V22C17.6146 22 17.1979 22.0052 16.75 22.0156C16.3021 22.026 15.8594 22.0208 15.4219 22C14.9844 21.9792 14.5573 21.9167 14.1406 21.8125C13.724 21.7083 13.3594 21.5469 13.0469 21.3281C12.7344 21.1094 12.4792 20.8125 12.2812 20.4375C12.0833 20.0625 11.9896 19.5833 12 19V7C12 6.03125 12.1823 5.125 12.5469 4.28125C12.9115 3.4375 13.4115 2.69792 14.0469 2.0625C14.6823 1.42708 15.4219 0.927083 16.2656 0.5625C17.1094 0.197917 18.0208 0.0104167 19 0H20ZM18 2.09375C17.4167 2.20833 16.8854 2.41667 16.4062 2.71875C15.9271 3.02083 15.5052 3.39583 15.1406 3.84375C14.776 4.29167 14.4948 4.77604 14.2969 5.29688C14.099 5.81771 14 6.38542 14 7V19C14 19.2708 14.099 19.5052 14.2969 19.7031C14.4948 19.901 14.7292 20 15 20H18V2.09375Z" fill="#545454"/>
</svg>
