<svg width="32" height="32" viewBox="0 0 32 32" fill="none" xmlns="http://www.w3.org/2000/svg">
<path d="M28.0334 13.36L17.0881 4.12732C16.7838 3.87072 16.3985 3.72998 16.0004 3.72998C15.6024 3.72998 15.2171 3.87072 14.9128 4.12732L3.96943 13.36C3.83737 13.4716 3.74276 13.621 3.69841 13.7881C3.65406 13.9553 3.6621 14.132 3.72144 14.2943C3.78078 14.4567 3.88856 14.597 4.03021 14.6961C4.17186 14.7953 4.34053 14.8485 4.51343 14.8487H7.40876V26.482C7.40876 26.6588 7.479 26.8284 7.60402 26.9534C7.72905 27.0784 7.89862 27.1487 8.07543 27.1487H13.6061V23.0093C13.5932 22.3791 13.82 21.7675 14.2408 21.2982C14.6616 20.8289 15.2449 20.537 15.8728 20.4813C16.1977 20.4639 16.5228 20.5129 16.8282 20.6253C17.1337 20.7377 17.413 20.9111 17.6491 21.135C17.8853 21.3589 18.0734 21.6286 18.202 21.9276C18.3305 22.2265 18.3968 22.5486 18.3968 22.874V27.1487H23.9274C24.1042 27.1487 24.2738 27.0784 24.3988 26.9534C24.5239 26.8284 24.5941 26.6588 24.5941 26.482V14.8487H27.4888C27.6617 14.8485 27.8303 14.7953 27.972 14.6961C28.1136 14.597 28.2214 14.4567 28.2808 14.2943C28.3401 14.132 28.3481 13.9553 28.3038 13.7881C28.2594 13.621 28.1655 13.4716 28.0334 13.36Z" stroke="#545454" stroke-width="0.666667" stroke-linecap="round" stroke-linejoin="round"/>
</svg>
