<svg width="32" height="32" viewBox="0 0 32 32" fill="none" xmlns="http://www.w3.org/2000/svg">
<path d="M23.3333 11.3334C23.3333 6.91537 20.0499 3.33337 15.9999 3.33337C11.9499 3.33337 8.66659 6.91537 8.66659 11.3334M3.33325 11.3334H28.6666L25.8666 28.6667H6.13325L3.33325 11.3334Z" stroke="#545454" />
<path d="M11.3333 18.6667C12.0697 18.6667 12.6667 18.0697 12.6667 17.3333C12.6667 16.597 12.0697 16 11.3333 16C10.597 16 10 16.597 10 17.3333C10 18.0697 10.597 18.6667 11.3333 18.6667Z" fill="#545454"/>
<path d="M12 22C12 22 13.3333 24 16 24C18.6667 24 20 22 20 22" stroke="#545454" stroke-width="2.66667" stroke-linecap="round" stroke-linejoin="round"/>
<path d="M20.6666 18.6667C21.403 18.6667 21.9999 18.0697 21.9999 17.3333C21.9999 16.597 21.403 16 20.6666 16C19.9302 16 19.3333 16.597 19.3333 17.3333C19.3333 18.0697 19.9302 18.6667 20.6666 18.6667Z" fill="#545454"/>
</svg>
