<svg width="32" height="32" viewBox="0 0 32 32" fill="none" xmlns="http://www.w3.org/2000/svg">
<path d="M13 18.5C13 18.8978 12.842 19.2794 12.5607 19.5607C12.2794 19.842 11.8978 20 11.5 20C11.1022 20 10.7206 19.842 10.4393 19.5607C10.158 19.2794 10 18.8978 10 18.5C10 18.1022 10.158 17.7206 10.4393 17.4393C10.7206 17.158 11.1022 17 11.5 17C11.8978 17 12.2794 17.158 12.5607 17.4393C12.842 17.7206 13 18.1022 13 18.5ZM22 18.5C22 18.8978 21.842 19.2794 21.5607 19.5607C21.2794 19.842 20.8978 20 20.5 20C20.1022 20 19.7206 19.842 19.4393 19.5607C19.158 19.2794 19 18.8978 19 18.5C19 18.1022 19.158 17.7206 19.4393 17.4393C19.7206 17.158 20.1022 17 20.5 17C20.8978 17 21.2794 17.158 21.5607 17.4393C21.842 17.7206 22 18.1022 22 18.5ZM14 18.5C14 18.3674 14.0527 18.2402 14.1464 18.1464C14.2402 18.0527 14.3674 18 14.5 18H17.5C17.6326 18 17.7598 18.0527 17.8536 18.1464C17.9473 18.2402 18 18.3674 18 18.5C18 18.6326 17.9473 18.7598 17.8536 18.8536C17.7598 18.9473 17.6326 19 17.5 19H14.5C14.3674 19 14.2402 18.9473 14.1464 18.8536C14.0527 18.7598 14 18.6326 14 18.5Z" fill="#545454"/>
<path fill-rule="evenodd" clip-rule="evenodd" d="M10.242 8.97C10.0945 8.38025 10.0835 7.76467 10.2096 7.17001C10.3358 6.57534 10.5958 6.01726 10.9699 5.53814C11.344 5.05902 11.8225 4.67148 12.3688 4.40496C12.9152 4.13843 13.5151 3.99994 14.123 4H17.877C18.4848 4.00009 19.0846 4.1387 19.6308 4.40528C20.177 4.67187 20.6553 5.05943 21.0293 5.53853C21.4033 6.01763 21.6633 6.57566 21.7893 7.17025C21.9154 7.76484 21.9043 8.38034 21.757 8.97L20.97 12.12C20.6928 13.2284 20.0532 14.2123 19.1526 14.9154C18.2521 15.6184 17.1424 16.0003 16 16.0003C14.8575 16.0003 13.7478 15.6184 12.8473 14.9154C11.9467 14.2123 11.3071 13.2284 11.03 12.12L10.243 8.97H10.242ZM14.123 5H17.877C18.3329 5.00005 18.7828 5.10401 19.1925 5.30398C19.6022 5.50395 19.9609 5.79467 20.2415 6.15405C20.522 6.51344 20.7169 6.93203 20.8114 7.37804C20.906 7.82404 20.8976 8.28572 20.787 8.728L20 11.877C19.777 12.7691 19.2622 13.5611 18.5375 14.1271C17.8127 14.693 16.9195 15.0004 16 15.0004C15.0804 15.0004 14.1872 14.693 13.4624 14.1271C12.7377 13.5611 12.2229 12.7691 12 11.877L11.213 8.727C11.1025 8.28479 11.0943 7.82322 11.1889 7.37734C11.2835 6.93146 11.4784 6.51301 11.7589 6.15375C12.0394 5.79448 12.3981 5.50386 12.8077 5.30395C13.2174 5.10404 13.6672 5.00009 14.123 5Z" fill="#545454"/>
<path d="M15 1C12.6131 1 10.3239 1.94821 8.63605 3.63604C6.94822 5.32387 6.00001 7.61305 6.00001 10V16C5.99841 17.3862 6.28579 18.7576 6.84383 20.0266C7.40186 21.2955 8.21828 22.4342 9.24101 23.37L6.38701 27.447C6.13501 27.8069 5.99989 28.2356 6.00001 28.675C6.00001 29.407 6.59301 30 7.32501 30H24.675C25.407 30 26 29.407 26 28.675C26 28.235 25.865 27.807 25.613 27.447L22.759 23.37C23.7818 22.4343 24.5982 21.2956 25.1563 20.0266C25.7143 18.7576 26.0017 17.3862 26 16V10C26 7.61305 25.0518 5.32387 23.364 3.63604C21.6761 1.94821 19.387 1 17 1H15ZM11.636 25C12.955 25.64 14.436 26 16 26C17.5117 26.0022 19.0041 25.6602 20.364 25H20.992C21.531 25 21.724 25.241 21.932 25.547C22.1 25.791 22.206 25.957 22.238 26.009H9.96401C10.012 25.943 10.144 25.749 10.299 25.499C10.492 25.185 10.983 25 11.272 25H11.636ZM13.589 3.142C14.0534 3.04723 14.5261 2.99965 15 3H17C18.8565 3 20.637 3.7375 21.9498 5.05025C23.2625 6.36301 24 8.14348 24 10L22.188 13.625C22.025 13.95 22 14.13 22 14.5C22 14.8978 22.158 15.2794 22.4393 15.5607C22.7207 15.842 23.1022 16 23.5 16H23.938C23.694 17.9331 22.7529 19.7107 21.2914 20.9993C19.8299 22.2879 17.9485 22.9989 16 22.9989C14.0516 22.9989 12.1701 22.2879 10.7086 20.9993C9.24709 19.7107 8.30604 17.9331 8.06201 16H8.50001C8.89783 16 9.27936 15.842 9.56067 15.5607C9.84197 15.2794 10 14.8978 10 14.5C10 14.095 9.95201 13.905 9.77201 13.545L8.00001 10C8.00079 8.38833 8.55722 6.82621 9.57549 5.57696C10.5938 4.32771 12.0116 3.46774 13.59 3.142H13.589ZM8.00001 12.236L8.87801 13.992C8.95401 14.143 8.97301 14.203 8.98101 14.239C8.99001 14.274 9.00001 14.335 9.00001 14.5C9.00001 14.6326 8.94733 14.7598 8.85356 14.8536C8.75979 14.9473 8.63261 15 8.50001 15H8.00001V12.236ZM24 15H23.5C23.3674 15 23.2402 14.9473 23.1465 14.8536C23.0527 14.7598 23 14.6326 23 14.5C23 14.329 23.007 14.274 23.013 14.243C23.0284 14.1831 23.052 14.1255 23.083 14.072L24 12.236V15ZM24 28H8.00001L8.42001 27.416C8.51275 27.2871 8.63487 27.1821 8.77625 27.1098C8.91762 27.0374 9.0742 26.9998 9.23301 27H22.769C22.9275 27.0001 23.0837 27.0379 23.2247 27.1102C23.3657 27.1826 23.4875 27.2874 23.58 27.416L24 28Z" fill="#545454"/>
</svg>
