<svg width="32" height="32" viewBox="0 0 32 32" fill="none" xmlns="http://www.w3.org/2000/svg">
<path d="M4.86657 20.5333L6.26657 19.1334L9.5999 19.6L14.7999 14.4L4.3999 8.73335L6.26657 6.86668L18.9999 10.1333L24.1999 5.00002C24.5777 4.62224 25.0443 4.43335 25.5999 4.43335C26.1555 4.43335 26.6221 4.62224 26.9999 5.00002C27.3777 5.37779 27.5666 5.84446 27.5666 6.40002C27.5666 6.95557 27.3777 7.42224 26.9999 7.80002L21.8666 13L25.1332 25.7333L23.2666 27.6L17.5999 17.2L12.3999 22.4L12.8666 25.7333L11.4666 27.1333L9.13324 22.8667L4.86657 20.5333Z" fill="#545454"/>
</svg>
